<svg width="280" height="200" viewBox="0 0 280 200" fill="none" xmlns="http://www.w3.org/2000/svg">
<g clip-path="url(#clip0_1_811)">
<path d="M35.899 31.8389C44.6849 31.8389 51.8073 24.7115 51.8073 15.9194C51.8073 7.12738 44.6849 0 35.899 0C27.1131 0 19.9907 7.12738 19.9907 15.9194C19.9907 24.7115 27.1131 31.8389 35.899 31.8389Z" fill="#FF6584"/>
<path d="M222.751 162.915C217.205 162.914 211.839 160.945 207.607 157.359C203.375 153.772 200.551 148.8 199.638 143.326L199.619 143.21L199.693 143.12C200.937 141.628 201.982 139.981 202.802 138.219C201.896 139.209 200.869 140.081 199.745 140.815L199.37 141.065L199.349 140.615C199.33 140.226 199.32 139.84 199.32 139.468C199.318 137.279 199.62 135.1 200.217 132.993C202.938 123.426 203.403 113.151 201.6 102.456C201.292 100.622 201.137 98.7659 201.137 96.9062C201.14 89.0475 203.938 81.4464 209.031 75.464C214.123 69.4816 221.178 65.5086 228.93 64.2563C236.683 63.004 244.628 64.5544 251.343 68.6297C258.058 72.705 263.104 79.0391 265.577 86.4978L265.652 86.7252L265.431 86.815C263.765 87.5206 261.998 87.9592 260.196 88.1146C262.101 88.5531 264.054 88.7409 266.007 88.6733L266.214 88.6661L266.264 88.8667C266.919 91.4963 267.25 94.1962 267.249 96.9062L267.248 97.1996C267.242 99.275 267.673 101.328 268.513 103.226C269.353 105.123 270.583 106.822 272.124 108.212C274.627 110.491 276.606 113.286 277.927 116.403C279.248 119.521 279.878 122.888 279.774 126.273C279.67 129.658 278.835 132.98 277.325 136.01C275.816 139.041 273.668 141.709 271.03 143.83L270.908 143.929L270.765 143.863C267.748 142.493 265.55 141.001 263.942 139.22C265.014 141.506 266.457 143.598 268.212 145.412L268.439 145.646L268.157 145.811C264.575 147.901 260.502 149.002 256.355 149L256.237 149C256.195 148.999 256.153 148.999 256.111 148.999C249.767 148.999 243.755 151.454 239.597 155.746C237.407 158.003 234.789 159.8 231.896 161.031C229.004 162.262 225.894 162.902 222.751 162.915Z" fill="#F2F2F2"/>
<path d="M214.459 199.858C214.357 199.858 214.259 199.821 214.182 199.754C214.105 199.687 214.055 199.595 214.041 199.494C214.023 199.368 212.263 186.668 213.843 169.788C215.303 154.2 219.99 131.747 234.031 113.306C234.065 113.262 234.107 113.225 234.155 113.197C234.203 113.169 234.256 113.151 234.311 113.143C234.366 113.136 234.422 113.14 234.476 113.154C234.529 113.168 234.58 113.193 234.624 113.226C234.668 113.26 234.705 113.302 234.733 113.35C234.761 113.398 234.779 113.451 234.787 113.506C234.794 113.561 234.791 113.617 234.776 113.671C234.762 113.725 234.738 113.775 234.704 113.819C220.784 132.1 216.135 154.389 214.685 169.867C213.114 186.648 214.86 199.25 214.878 199.375C214.886 199.435 214.882 199.496 214.865 199.554C214.848 199.613 214.818 199.666 214.778 199.712C214.739 199.758 214.689 199.795 214.634 199.82C214.579 199.845 214.519 199.858 214.459 199.858Z" fill="#3F3D56"/>
<path d="M221.478 137.69C221.389 137.69 221.302 137.661 221.229 137.609C221.157 137.556 221.103 137.482 221.075 137.397C221.048 137.312 221.048 137.221 221.075 137.136C221.103 137.051 221.157 136.977 221.229 136.924C225.23 134.214 229.552 132.012 234.096 130.37C241.195 127.769 251.989 125.411 263.103 128.95C263.155 128.967 263.205 128.994 263.247 129.03C263.289 129.066 263.324 129.11 263.35 129.159C263.376 129.209 263.391 129.262 263.396 129.318C263.4 129.373 263.394 129.429 263.377 129.482C263.361 129.535 263.333 129.584 263.298 129.627C263.262 129.669 263.218 129.704 263.169 129.729C263.119 129.755 263.065 129.771 263.01 129.775C262.955 129.78 262.899 129.774 262.846 129.757C251.961 126.29 241.362 128.609 234.387 131.164C229.916 132.779 225.663 134.944 221.726 137.609C221.654 137.661 221.567 137.69 221.478 137.69Z" fill="#3F3D56"/>
<path d="M49.6734 168.431C45.7284 168.424 39.5176 168.743 36.1345 170.53C33.5348 171.904 31.1673 173.679 29.1187 175.789C28.3291 176.606 27.5812 177.462 26.878 178.354C24.9324 171.693 24.706 164.648 26.2198 157.876C26.3262 157.42 26.2912 156.943 26.1195 156.507C25.9478 156.072 25.6474 155.699 25.2586 155.439C24.8697 155.179 24.4108 155.043 23.9431 155.051C23.4753 155.058 23.021 155.208 22.6406 155.481C17.1447 159.491 13.631 166.288 12.7764 173.165C11.6877 181.926 14.2514 190.754 17.8146 198.834L17.8135 198.838C17.8069 198.874 17.7969 198.914 17.7871 198.953C17.7739 199.013 17.7574 199.072 17.7442 199.131C17.7211 199.234 17.6948 199.339 17.6716 199.441L18.2486 199.415C18.2816 199.432 18.3146 199.445 18.3474 199.461H32.798C32.9895 199.253 33.1679 199.032 33.3321 198.801C34.9312 196.607 35.5938 193.635 36.4016 190.952C36.9867 189.01 37.7185 187.115 38.5908 185.284C40.7873 180.685 43.8179 176.533 47.5288 173.041C47.6475 172.929 47.7695 172.816 47.8915 172.708C48.513 172.136 49.4764 171.371 50.4179 170.652C50.6236 170.496 50.7751 170.279 50.8512 170.032C50.9272 169.785 50.9239 169.52 50.8417 169.275C50.7595 169.029 50.6026 168.816 50.393 168.665C50.1835 168.514 49.9318 168.432 49.6734 168.431Z" fill="#F2F2F2"/>
<path d="M147.241 32.0835C147.581 33.0346 147.534 34.0813 147.11 34.9979C146.685 35.9145 145.918 36.6276 144.974 36.9834C144.765 37.0615 144.549 37.1209 144.33 37.161L142.146 50.5421L137.023 45.8088L139.882 33.8275C139.776 32.8179 140.072 31.8072 140.705 31.0138C141.338 30.2205 142.257 29.7083 143.264 29.588C144.112 29.4907 144.967 29.6848 145.69 30.1383C146.412 30.5918 146.959 31.2778 147.241 32.0835Z" fill="#9E616A"/>
<path d="M109.435 62.4039C109.435 62.4039 113.41 57.147 127.838 57.291L136.028 54.3135L137.899 37.1455L144.45 38.7062L143.514 59.9322L129.477 68.0479L111.073 71.7937L109.435 62.4039Z" fill="#E14425"/>
<path d="M87.2646 191.828L91.0443 193.439L99.0555 179.618L93.4773 177.239L87.2646 191.828Z" fill="#9E616A"/>
<path d="M118.498 195.407L122.606 195.406L124.56 179.549L118.497 179.549L118.498 195.407Z" fill="#9E616A"/>
<path d="M118.353 199.695L130.986 199.695V199.535C130.986 198.23 130.468 196.978 129.546 196.056C128.624 195.133 127.373 194.614 126.069 194.614L123.761 192.862L119.455 194.615L118.353 194.615L118.353 199.695Z" fill="#2F2E41"/>
<path d="M84.9668 194.573L96.589 199.529L96.6516 199.382C97.1629 198.182 97.1766 196.827 96.6898 195.616C96.203 194.406 95.2556 193.438 94.0559 192.926L92.6192 190.409L87.9718 190.332L86.9572 189.899L84.9668 194.573Z" fill="#2F2E41"/>
<path d="M122.527 101.556L128.771 139.601L127.072 145.271L129.302 149.286L126.027 184.549L127.356 187.478L123.643 189.77H116.086L115.685 157.845L113.818 153.158V150.575L110.018 131.109L109.319 153.376L108.213 158.07L109.142 161.413L107.929 163.755L97.5317 186.095H89.0581L89.7135 181.043C88.1953 180.274 91.9928 178.026 92.3577 176.362L91.11 173.553L92.3577 168.246L93.5018 157.877L92.2953 135.99L92.863 106.516L102.775 98.9312L122.527 101.556Z" fill="#2F2E41"/>
<path d="M107.322 51.4519C112.051 51.4519 115.885 47.6153 115.885 42.8827C115.885 38.15 112.051 34.3135 107.322 34.3135C102.593 34.3135 98.7588 38.15 98.7588 42.8827C98.7588 47.6153 102.593 51.4519 107.322 51.4519Z" fill="#9E616A"/>
<path d="M92.4426 117.337C92.6826 116.907 92.8254 116.429 92.8608 115.937C92.8963 115.445 92.8235 114.952 92.6478 114.491C92.472 114.031 92.1975 113.614 91.8435 113.272C91.4895 112.929 91.0648 112.668 90.5991 112.507L90.5788 100.523L85.3896 103.96L86.2044 114.813C85.9863 115.614 86.0693 116.467 86.4377 117.211C86.806 117.954 87.4342 118.537 88.2032 118.848C88.9721 119.159 89.8284 119.177 90.6097 118.899C91.3911 118.62 92.0433 118.065 92.4426 117.337Z" fill="#9E616A"/>
<path d="M91.9631 64.3147L89.6448 62.0786L87.9418 63.3086C87.9418 63.3086 86.2662 65.3207 84.9258 71.3569C83.5854 77.3931 84.9258 110.592 84.9258 110.592L92.2982 109.586L91.2929 92.1481L94.3088 77.393L91.9631 64.3147Z" fill="#E14425"/>
<path d="M88.54 62.6238L96.3505 58.8903L101.653 53.9684L111.323 53.896L114.442 57.9539L122.677 60.7532L121.305 89.1685L122.24 91.3535C122.24 91.3535 121.588 91.9429 121.291 92.2725C120.993 92.6021 121.702 95.3616 121.702 95.3616L122.102 98.3638L120.993 99.1571L122.435 100.862L122.793 103.55C122.793 103.55 97.616 97.2874 92.8587 107.661C92.6074 108.209 93.2263 102.853 93.2263 102.853L93.8453 98.9312L93.2312 95.4114L92.2955 94.475L93.8649 92.9044L92.8587 85.4522L88.54 62.6238Z" fill="#E14425"/>
<path d="M170.064 191.659H165.429L163.224 173.769H170.064V191.659Z" fill="#FFB6B6"/>
<path d="M172.51 199.695H169.187L168.593 196.555L167.074 199.695H158.258C157.836 199.695 157.424 199.56 157.084 199.31C156.743 199.059 156.492 198.706 156.366 198.302C156.24 197.899 156.247 197.465 156.385 197.065C156.522 196.666 156.784 196.321 157.132 196.08L164.172 191.215V188.04L171.577 188.482L172.51 199.695Z" fill="#2F2E41"/>
<path d="M215.14 182.457L211.154 184.823L200.137 170.561L206.021 167.069L215.14 182.457Z" fill="#FFB6B6"/>
<path d="M221.341 188.12L218.482 189.817L216.371 187.418L216.665 190.895L209.082 195.395C208.719 195.611 208.296 195.705 207.875 195.663C207.455 195.621 207.059 195.446 206.745 195.163C206.431 194.88 206.215 194.504 206.13 194.09C206.045 193.675 206.094 193.245 206.271 192.861L209.846 185.082L208.228 182.352L214.822 178.952L221.341 188.12Z" fill="#2F2E41"/>
<path d="M167.995 77.2715L165.743 91.6402L187.14 91.9217L184.325 78.1168L167.995 77.2715Z" fill="#FFB6B6"/>
<path d="M165.661 91.4588L159.549 106.291L159.104 145.956L164.319 183.827H170.091L172.456 146.573L178.272 121.082L184.008 147.743L201.844 173.839H210.609L194.495 145.082L192.63 113.757C192.63 113.757 193.793 100.468 187.844 92.6265L186.396 88.4404L165.661 91.4588Z" fill="#2F2E41"/>
<path d="M195.596 102.288C195 102.125 194.447 101.834 193.976 101.435C193.505 101.035 193.127 100.537 192.869 99.9759C192.611 99.4145 192.479 98.8034 192.483 98.1854C192.486 97.5675 192.625 96.9579 192.89 96.3995L183.787 66.7017L190.483 65.3735L198.808 94.4836C199.716 94.9904 200.406 95.8129 200.749 96.7952C201.091 97.7775 201.062 98.8513 200.666 99.8133C200.27 100.775 199.535 101.559 198.601 102.015C197.666 102.471 196.597 102.568 195.596 102.288Z" fill="#FFB6B6"/>
<path d="M184.797 87.704L168.8 80.2397C168.378 80.2308 167.971 80.0837 167.641 79.8212C167.311 79.5587 167.076 79.1951 166.972 78.7861C166.182 75.6533 164.442 72.1709 165.365 64.0391C165.547 62.4637 166.043 60.941 166.823 59.5608C167.604 58.1807 168.653 56.9713 169.909 56.0041C171.165 55.0368 172.602 54.3315 174.135 53.9298C175.668 53.5281 177.266 53.4381 178.834 53.6652C180.488 53.9023 182.074 54.4867 183.487 55.3801C184.9 56.2735 186.108 57.4558 187.032 58.8494C187.956 60.2429 188.576 61.8163 188.85 63.4662C189.123 65.1161 189.045 66.8053 188.621 68.423C186.764 75.4786 186.963 83.0235 186.752 85.9233C186.72 86.3426 186.553 86.7401 186.274 87.0551C185.996 87.3701 185.622 87.5852 185.21 87.6677C185.088 87.6921 184.963 87.7044 184.838 87.7045C184.825 87.7045 184.811 87.7043 184.797 87.704Z" fill="#E14425"/>
<path d="M150.354 37.8269C150.265 38.0256 150.16 38.217 150.041 38.3994L157.691 56.3481L162.393 56.9253L162.45 64.14L154.027 63.9276C153.346 63.9105 152.69 63.6729 152.156 63.2506C151.622 62.8282 151.239 62.2439 151.065 61.5854L145.395 40.1232C144.592 39.8834 143.881 39.4047 143.356 38.7506C142.832 38.0965 142.518 37.2981 142.458 36.4615C142.398 35.625 142.594 34.7899 143.02 34.0675C143.446 33.345 144.081 32.7694 144.842 32.4171C145.602 32.0648 146.452 31.9527 147.278 32.0955C148.104 32.2383 148.867 32.6294 149.465 33.2166C150.063 33.8039 150.469 34.5596 150.628 35.3831C150.786 36.2067 150.691 37.059 150.354 37.8269Z" fill="#FFB6B6"/>
<path d="M158.461 55.7086C158.652 55.5398 158.876 55.4142 159.119 55.3402C159.363 55.2661 159.619 55.2455 159.871 55.2797L168.671 56.4719C169.972 56.4549 171.226 56.9549 172.159 57.8621C173.092 58.7694 173.627 60.0098 173.648 61.3115C173.668 62.6132 173.172 63.8698 172.268 64.8059C171.364 65.742 170.126 66.2811 168.825 66.305L160.03 67.7239C159.779 67.7644 159.522 67.7502 159.277 67.6825C159.032 67.6147 158.804 67.4948 158.609 67.3311C158.415 67.1673 158.258 66.9636 158.149 66.7336C158.04 66.5036 157.982 66.2529 157.979 65.9985L157.865 57.0569C157.862 56.8024 157.913 56.5503 158.016 56.3176C158.119 56.0849 158.271 55.8772 158.461 55.7086Z" fill="#E14425"/>
<path d="M183.379 74.2241C183.154 74.1057 182.957 73.9401 182.802 73.7386C182.647 73.5371 182.537 73.3044 182.48 73.0565L180.481 64.3981C180.005 63.1866 180.029 61.8357 180.547 60.6417C181.065 59.4477 182.035 58.5079 183.244 58.0284C184.454 57.5489 185.804 57.5688 186.998 58.0837C188.193 58.5986 189.135 59.5666 189.617 60.7753L194.055 68.5059C194.182 68.7265 194.259 68.9719 194.283 69.2252C194.306 69.4786 194.274 69.734 194.19 69.9741C194.106 70.2142 193.971 70.4332 193.795 70.6164C193.618 70.7996 193.404 70.9426 193.168 71.0356L184.85 74.3054C184.614 74.3986 184.36 74.4396 184.106 74.4255C183.852 74.4115 183.604 74.3428 183.379 74.2241Z" fill="#E14425"/>
<path d="M183.025 50.6118C187.409 48.2135 189.02 42.7126 186.624 38.3252C184.227 33.9379 178.73 32.3255 174.346 34.7238C169.961 37.1222 168.35 42.6231 170.747 47.0104C173.143 51.3978 178.64 53.0102 183.025 50.6118Z" fill="#FFB6B6"/>
<path d="M172.461 39.0284C170.52 39.0174 168.579 39.0065 166.638 38.9955C166.5 37.6717 167.089 36.3546 167.947 35.3375C168.805 34.3204 169.916 33.5545 171.012 32.8014C172.126 32.0367 173.279 31.2548 174.603 30.9875C175.712 30.7636 176.859 30.919 177.98 31.0749C179.466 31.2818 180.953 31.4886 182.439 31.6955C184.071 31.9225 185.778 32.1793 187.103 33.1585C188.895 34.4827 188.437 37.5393 190.156 38.9565C195.35 43.2367 193.247 46.9747 193.344 50.8761C187.068 51.5349 180.792 52.1936 174.516 52.8524C173.835 52.9698 173.138 52.9495 172.464 52.7927C171.805 52.5911 171.201 52.0451 171.152 51.3571C171.098 50.5887 171.707 49.9598 172.202 49.3696C173.382 47.9065 174.09 46.1192 174.233 44.2444C174.376 42.3696 173.947 40.4956 173.002 38.8703L172.461 39.0284Z" fill="#2F2E41"/>
<path d="M105.131 51.0327C105.095 50.9521 105.058 50.8712 105.022 50.79C105.036 50.7905 105.05 50.7925 105.064 50.7929L105.131 51.0327Z" fill="#2F2E41"/>
<path d="M98.5208 34.7033C98.9274 34.3194 99.4559 34.0907 100.014 34.0573C100.568 34.0751 101.129 34.5756 101.014 35.118C102.032 33.3159 103.65 31.9299 105.587 31.2032C107.524 30.4765 109.654 30.4557 111.604 31.1443C112.981 31.6302 114.33 32.6022 114.646 34.028C114.677 34.4023 114.789 34.7655 114.973 35.0925C115.133 35.2673 115.341 35.3915 115.571 35.4497C115.8 35.5079 116.042 35.4976 116.266 35.4201L116.279 35.4161C116.356 35.3899 116.439 35.3874 116.517 35.4087C116.595 35.4301 116.665 35.4744 116.717 35.536C116.77 35.5976 116.803 35.6735 116.812 35.754C116.821 35.8346 116.806 35.9159 116.768 35.9877L116.379 36.7144C116.87 36.8239 117.38 36.8131 117.866 36.6828C117.946 36.6616 118.032 36.6659 118.11 36.6952C118.188 36.7244 118.255 36.7771 118.302 36.8461C118.349 36.915 118.374 36.9969 118.372 37.0803C118.371 37.1638 118.344 37.2448 118.295 37.3123C117.648 38.1983 116.803 38.9209 115.827 39.4226C114.852 39.9243 113.773 40.1913 112.676 40.2023C111.121 40.1928 109.549 39.6562 108.034 40.0142C107.449 40.1527 106.901 40.4207 106.432 40.7985C105.964 41.1763 105.585 41.6544 105.325 42.1976C105.065 42.7408 104.93 43.3354 104.929 43.9378C104.929 44.5402 105.063 45.135 105.322 45.6786C104.857 45.1695 103.958 45.29 103.482 45.7892C103.263 46.0565 103.101 46.3659 103.006 46.6983C102.911 47.0307 102.886 47.3791 102.931 47.7218C103.058 48.7715 103.369 49.7905 103.851 50.7317C102.011 50.675 100.233 50.0547 98.7566 48.9544C97.2802 47.8541 96.177 46.3269 95.5957 44.579C95.0145 42.8312 94.9834 40.947 95.5065 39.1809C96.0296 37.4147 97.0817 35.8518 98.5208 34.7033Z" fill="#2F2E41"/>
<path d="M268.658 200H0.621309C0.522992 200 0.428802 199.961 0.359382 199.891C0.289962 199.821 0.250977 199.727 0.250977 199.629C0.250977 199.53 0.289962 199.436 0.359382 199.366C0.428802 199.296 0.522992 199.257 0.621309 199.257H268.658C268.707 199.257 268.755 199.266 268.801 199.285C268.846 199.303 268.887 199.331 268.921 199.365C268.956 199.4 268.984 199.441 269.002 199.486C269.021 199.531 269.031 199.58 269.031 199.629C269.031 199.677 269.021 199.726 269.002 199.771C268.984 199.816 268.956 199.857 268.921 199.892C268.887 199.926 268.846 199.954 268.801 199.972C268.755 199.991 268.707 200 268.658 200Z" fill="#CCCCCC"/>
<path d="M64.6076 3.70525C56.8978 2.66239 48.0957 6.83254 46.0975 14.3568C45.5939 13.019 44.6783 11.876 43.4831 11.093C42.2879 10.31 40.8748 9.92747 39.4481 10.0007C38.0214 10.074 36.655 10.5992 35.5461 11.5006C34.4372 12.4019 33.6434 13.6326 33.2793 15.015L34.162 15.6476C50.6839 19.223 67.7868 19.1456 84.2758 15.4209C78.9128 9.78072 72.3175 4.7481 64.6076 3.70525Z" fill="#F0F0F0"/>
<path d="M31.5432 24.9313C23.8333 23.8885 15.0313 28.0586 13.033 35.5828C12.5294 34.245 11.6139 33.1021 10.4186 32.3191C9.22341 31.536 7.81038 31.1535 6.38368 31.2268C4.95698 31.3001 3.59049 31.8253 2.48163 32.7266C1.37277 33.628 0.578945 34.8587 0.214844 36.2411L1.09751 36.8737C17.6195 40.4491 34.7223 40.3717 51.2113 36.647C45.8484 31.0068 39.253 25.9742 31.5432 24.9313Z" fill="#F0F0F0"/>
</g>
<defs>
<clipPath id="clip0_1_811">
<rect width="279.57" height="200" fill="white" transform="translate(0.214844)"/>
</clipPath>
</defs>
</svg>
